Patient4_TMGait_0pt4_01_left_21_EMG.mot
version=1
nRows=30
nColumns=33
inDegrees=no
endheader
time	1LAddLong	2LGlutMax	3LGlutMed	4LIliopsoas	5LSemiMemb	6LBicFemLong	7LRecFem	8LVastMed	9LVastLat	10LGasMed	11LTibAnt	12lTibPost	13LPeroneusLong	14LSol	15LExtDigLong	16LFlexDigLong	17RAddLong	18RGlutMax	19RGlutMed	20RIliopsoas	21RSemiMemb	22RBicFemLong	23RRecFem	24RVastMed	25RVastLat	26RGasMed	27RTibAnt	28RTibPost	29RPeroneusLong	30RSol	31RExtDigLong	32RFlexDigLong
25.605	-0.013123	0.14236	0.051422	0.003662	-0.032654	0.024109	-0.17929	0.005188	0.012512	0.11368	-0.00412	-0.018463	-0.003204	0.30838	0.15305	-0.016632	-0.001373	-0.25253	-0.20172	-0.22888	-0.039063	0.10223	0.44479	-0.060883	-0.036774	0.005493	0.21149	-0.004883	-0.090179	-0.11475	0.007019	-0.013428
25.606	0.005035	0.15793	-0.040131	-0.020599	-0.006714	-0.25253	-0.2272	0.005951	0.027313	-0.12314	0.018768	-0.019226	0.32883	0.096741	0.083771	-0.024567	-0.010529	-0.26932	-0.26047	-0.24658	0.012512	0.10986	0.50613	0.01358	-0.0177	0.003052	0.040741	-0.008087	-0.028381	0.10803	-0.003357	-0.016174
25.607	0.012665	0.20554	0.050354	-0.023804	-0.029907	-0.54855	-0.26321	0.018005	0.019073	0.019379	-0.029297	-0.011749	0.38361	-0.15869	-0.023804	-0.012054	-0.014343	-0.28915	-0.16296	-0.25024	0.059357	0.037079	0.47363	0.014191	-0.032349	-0.005493	-0.019989	-0.004578	-0.15915	0.089417	0.000763	-0.022278
25.608	0.011597	0.20477	0.020905	0.021057	-0.044708	-0.48798	-0.25757	0.002747	0.009155	0.61066	-0.024261	-0.003204	-0.14053	-0.16037	-0.03067	-0.003967	-0.053253	-0.34378	-0.064697	-0.25009	0.10376	0.00473	0.47699	0.012207	-0.028839	-0.005646	-0.12589	-0.000305	-0.20248	0.087585	0.002899	-0.020447
25.609	0.010223	0.2214	0.000763	0.025024	0.05722	-0.13641	-0.24017	-0.001068	-0.002899	1.2115	0.031128	-0.018158	-0.18539	-0.14679	-0.021057	-0.011902	-0.10025	-0.42557	-0.12436	-0.076141	0.058289	0.055542	0.46432	0.005798	-0.013428	0.001068	-0.21271	-0.005493	-0.082397	0.07843	-0.002441	-0.00946
25.61	-0.003204	0.271	0.007935	0.012512	0.025482	0.037689	-0.20676	-0.002136	-0.058441	1.3394	0.092163	-0.012817	-0.11856	-0.20462	-0.084229	-0.09552	-0.10269	-0.46127	-0.17136	0.28366	0.038757	0.066223	0.49957	0.050812	-0.02655	0.014191	0.19333	-0.005798	0.011597	-0.010681	-0.002441	-0.01297
25.611	-0.00824	0.29022	-0.073853	-0.011139	-0.032959	0.084381	-0.25681	0.006866	-0.073395	1.1703	0.035706	-0.014648	-0.19241	-0.19012	-0.048828	0.009918	-0.084686	-0.3952	0.018158	0.28	0.004578	0.063934	0.49347	0.058441	-0.010834	0.011902	0.50598	0.005646	0.063629	-0.10361	-0.000458	-0.006409
25.612	0.004578	0.2739	-0.028839	-0.021667	-0.011292	-0.019836	-0.31799	0.008392	-0.0354	0.084839	0.007629	0.003662	0.21988	-0.18692	-0.09903	0.26382	-0.07019	-0.40985	0.021515	0.14313	-0.020447	0.051575	0.51514	0.087891	-0.013428	0.011139	0.61874	-0.003052	0.13626	-0.18097	0.000153	-0.00885
25.613	0.003204	0.19424	0.06897	0.002441	0.039063	-0.1622	-0.34561	0.005493	0.033417	-0.80276	0.018616	0.004883	0.15137	-0.1683	-0.16525	0.22644	-0.025177	-0.40573	-0.071259	0.068054	-0.032196	0.06134	0.50095	0.03952	0.002136	0.002747	0.029449	-0.002594	0.023499	-0.12711	-0.001526	-0.006409
25.614	-0.002136	0.1561	0.1535	-0.001373	0.059509	-0.12863	-0.34607	-0.010376	0.094452	-1.062	0.009003	0.02182	-0.037994	0.062561	-0.11292	0.14999	0.023346	-0.42236	0.034332	-0.003662	-0.059662	0.021515	0.53345	0.02121	0.010071	0.002747	-0.33814	0.001221	0.002441	-0.081177	-0.004272	-0.012665
25.615	0.014496	0.069427	0.13336	-0.003204	-0.000153	-0.079498	-0.35843	-0.006561	0.062714	-0.92117	-0.002899	-0.003052	-0.071869	0.2385	0.022125	-0.040741	0.06958	-0.44189	-0.088043	0.004425	-0.070801	0.037537	0.51743	-0.018311	-0.00473	-0.000458	-0.57465	-0.005646	0.097961	0.003815	-0.00061	-0.006561
25.616	0.014801	0.065308	0.00473	-0.002289	-0.043488	-0.027008	-0.33722	0.013275	0.069122	-0.58441	-0.014496	-0.015106	-0.019073	0.24292	0.11414	-0.45013	0.066528	-0.44525	-0.20737	0.007629	-0.08194	0.052185	0.46036	0.028534	0.013428	0.00412	-0.36758	-0.001221	0.079041	0.11932	-0.003052	-0.001526
25.617	0.002136	0.059357	-0.001373	-0.015869	-0.027161	-0.006561	-0.32623	0.007629	0.035248	-0.45807	-0.016174	0.00946	-0.00824	0.34973	0.10086	0.21088	0.032196	-0.44357	-0.25238	-0.014191	-0.068512	0.054932	0.4245	0.044861	0.023346	0.003052	0.002594	0.000763	-0.036316	0.087433	-0.003662	-0.014038
25.618	-0.00885	0.07782	0.006104	0.000153	-0.030823	0.035706	-0.35568	0.007477	0.13367	-0.22614	-0.022125	-0.005646	0.040588	0.17334	0.05188	0.078583	0.026855	-0.4361	-0.2742	0.043793	-0.064392	0.035706	0.46249	-0.001984	0.039063	0.000305	0.040283	-0.003967	-0.063782	0.097351	0.006714	-0.01297
25.619	-0.011292	0.058746	-0.044556	0.00885	-0.040436	0.076599	-0.36209	0.008545	0.085602	-0.21774	-0.028687	-0.028687	0.017548	-0.3154	0.022583	-0.4335	0.037231	-0.39566	-0.22812	0.070801	-0.070038	0.033264	0.44174	-0.029449	0.033722	-0.003357	-0.11643	-0.002594	-0.019531	0.053864	-0.000763	-0.019226
25.62	0.005493	0.057831	0.049133	0.000153	-0.061951	0.061798	-0.36453	0.00946	-0.10605	-0.23193	-0.02655	-0.002747	-0.036621	-0.40451	0.00473	0.1387	0.006409	-0.42084	-0.17654	0.16235	-0.079803	0.034943	0.40726	-0.012512	0.027771	-0.000153	0.012054	-0.002289	-0.030975	0.03952	-0.004425	-0.019531
25.621	-0.003052	0.13229	-0.014496	0.005341	-0.10864	0.096436	-0.36545	-0.002289	-0.17822	-0.13763	0.029907	0.028381	-0.066528	-0.26306	-0.00473	0.10849	-0.01236	-0.4187	0.006866	0.23789	-0.090942	0.015411	0.36606	-0.00351	0.040283	0.002136	0.21927	-0.001221	-0.046539	0.037231	-0.002441	-0.023041
25.622	-0.002899	0.15488	-0.018311	-0.016937	-0.040436	0.16739	-0.35782	-0.005798	-0.16785	-0.017548	0.13168	0.00824	-0.14114	-0.26825	-0.025177	-0.020447	-0.026093	-0.39627	-0.21423	0.24796	-0.057526	0.030212	0.31906	0.039673	0.057678	-0.000458	0.23193	-0.003052	-0.072632	0.022736	-0.00061	-0.023346
25.623	-0.008087	0.18631	-0.027161	-0.013885	-0.072937	0.30228	-0.40543	0.01358	-0.12589	0.033264	0.19562	0.003815	-0.10544	-0.1294	-0.032654	0.19363	-0.030823	-0.31937	-0.36148	0.036316	0.000763	0.04776	0.30212	0.13977	0.059357	0.001984	0.72555	-0.001373	-0.14587	-0.03891	-0.007935	-0.020752
25.624	-0.022888	0.21759	-0.082703	-0.01236	-0.15427	0.42908	-0.42999	0.012512	-0.084229	0.060883	0.14389	-0.023346	0.12528	-0.02594	-0.042419	0.023956	-0.014038	-0.30258	-0.63477	-0.043488	0.016632	0.10361	0.29526	0.12955	0.063171	-0.000153	1.2248	-0.010529	-0.19577	-0.059967	0.012207	-0.015564
25.625	-0.010376	0.27924	-0.054016	0.012512	-0.09201	0.39322	-0.47806	0.009155	-0.031433	0.026855	-0.016022	-0.016632	0.2359	0.059204	-0.013733	-0.00351	-0.010223	-0.25314	-0.38727	-0.09613	-0.028076	0.14236	0.2887	0.10391	0.058594	0.005341	0.80505	0.001373	0.014801	-0.058746	-0.001373	-0.020447
25.626	-0.009613	0.27496	0.007324	-0.005188	-0.051575	0.35706	-0.47623	0.005798	-0.014343	-0.013885	-0.11536	0.007324	0.33661	0.14999	0.032349	-0.02594	-0.027771	-0.22308	-0.29724	-0.20416	-0.066223	0.14648	0.35034	0.027008	0.019073	0.004272	-0.62149	-0.001984	0.22995	-0.063324	-0.00351	-0.011139
25.627	0.031281	0.29495	-0.11475	-0.002136	-0.004578	0.30762	-0.48599	-0.005951	0.016785	-0.068665	-0.12573	-0.004578	0.53238	0.055237	0.10346	-0.023041	-0.001068	-0.19501	-0.39261	-0.14343	-0.060883	0.10239	0.43503	0.003357	0.002899	0.002594	-0.99274	-0.00061	0.13626	-0.081177	-0.003967	-0.016785
25.628	0.036316	0.3447	-0.16327	0.003052	0.15213	0.13825	-0.49713	-0.008087	0.0383	-0.13153	-0.089417	0.001678	0.085602	0.21133	0.093536	-0.027618	0.049744	-0.17487	-0.26276	-0.14694	-0.045776	0.081482	0.39658	-0.026398	-0.019379	-0.00061	-0.38742	-0.001678	0.055237	-0.075378	-0.002747	-0.012054
25.629	0.018005	0.36941	-0.12039	0.002289	0.049133	-0.37598	-0.38727	0.006561	0.069885	-0.10834	-0.02655	-0.000153	-0.93246	0.2179	0.038452	-0.019226	0.12024	-0.15106	-0.17105	-0.12878	-0.067596	0.032959	0.34531	-0.082703	-0.035858	0.000305	0.065918	-0.006256	0.011292	-0.007019	-0.002594	-0.017395
25.63	0	0.36041	0.10056	0.011749	-0.06012	-0.46692	-0.40329	0.001678	0.078735	-0.12421	-0.025024	0.000458	-0.69824	0.1709	-0.10437	-0.013885	0.1445	-0.068207	-0.076294	-0.089569	-0.084839	-0.018616	0.36758	-0.16037	-0.041351	-0.009918	-0.10117	0.000305	-0.025787	0.094604	-0.00351	-0.019836
25.631	-0.001373	0.36301	-0.02182	0.002747	-0.16373	-0.47119	-0.45746	0.000153	0.080261	-0.14816	-0.060883	0.006256	0.12589	0.054932	-0.15564	-0.024109	0.079041	-0.090485	0.064697	0.018616	-0.090179	-0.098724	0.37125	-0.15991	-0.059509	-0.009613	-0.15076	-0.002594	-0.049286	0.07019	-0.014038	-0.022278
25.632	0.010986	0.35812	-0.112	-0.01236	-0.16968	-0.42999	-0.47531	0.017853	0.097504	-0.10956	0.000763	-0.00412	-0.13672	0.036926	-0.012817	-0.023499	0.022736	-0.15198	-0.32516	0.037689	-0.083466	-0.15442	0.4361	-0.1622	-0.076141	-0.005341	-0.11383	0.000305	-0.022736	0.041351	0.000153	-0.022125
25.633	0.015717	0.38574	-0.11017	-0.032349	-0.001831	-0.20523	-0.44006	0.019226	0.085144	0.03418	0.039368	0.005493	0.41214	0.069733	0.069427	-0.018616	-0.037994	-0.16541	-0.43579	0.015259	-0.080414	-0.079346	0.41901	-0.17197	-0.072937	-0.003052	-0.1593	-0.002899	0.028076	0.003052	-0.007477	-0.024719
25.634	0.015411	0.43442	0.035248	-0.018616	0.10162	0.078888	-0.42465	0.020294	0.033264	0.12558	0.024261	-0.000458	-0.16602	0.00473	0.069885	-0.052795	-0.087128	-0.12405	-0.70786	0.062256	-0.065765	-0.068054	0.45548	-0.16495	-0.066681	-0.012817	-0.093384	0.001831	-0.020294	-0.019226	-0.002747	-0.026398
